<?xml version="1.0" encoding="utf-8"?>
<!-- Generator: Adobe Illustrator 26.0.2, SVG Export Plug-In . SVG Version: 6.00 Build 0)  -->
<svg version="1.1" id="Layer_1" xmlns="http://www.w3.org/2000/svg" xmlns:xlink="http://www.w3.org/1999/xlink" x="0px" y="0px"
	 viewBox="0 0 50 50" style="enable-background:new 0 0 50 50;" xml:space="preserve">
<style type="text/css">
	.st0{fill:#FFFFFF;}
	.st1{clip-path:url(#SVGID_00000041991790126073114600000011740534345141834149_);fill:#FFFFFF;}
	.st2{clip-path:url(#SVGID_00000041991790126073114600000011740534345141834149_);}
	.st3{font-family:'SignPainter-HouseScript';}
	.st4{font-size:59.7572px;}
	.st5{font-size:20.3219px;}
	.st6{clip-path:url(#SVGID_00000162334267834442451020000013607329785756285619_);}
</style>
<path class="st0" d="M26,9.6h5.9v19.7c0,1.8-0.4,3.4-1.2,4.8c-0.8,1.4-1.9,2.4-3.4,3.2c-1.5,0.8-3.1,1.1-4.9,1.1c-3,0-5.4-0.8-7-2.3
	c-1.7-1.5-2.5-3.7-2.5-6.5h5.9c0,1.4,0.3,2.4,0.9,3.1c0.6,0.7,1.5,1,2.8,1c1.1,0,2-0.4,2.7-1.2c0.7-0.8,1-1.9,1-3.3V9.6z"/>
<g>
	<defs>
		<ellipse id="SVGID_1_" transform="matrix(0.9732 -0.2298 0.2298 0.9732 -5.0895 6.4143)" cx="25" cy="25.1" rx="23.9" ry="23.9"/>
	</defs>
	<clipPath id="SVGID_00000169518206905321186660000008612293019691600026_">
		<use xlink:href="#SVGID_1_"  style="overflow:visible;"/>
	</clipPath>
	
		<ellipse transform="matrix(0.9732 -0.2298 0.2298 0.9732 -5.0895 6.4143)" style="clip-path:url(#SVGID_00000169518206905321186660000008612293019691600026_);fill:#FFFFFF;" cx="25" cy="25.1" rx="23.9" ry="23.9"/>
	<g style="clip-path:url(#SVGID_00000169518206905321186660000008612293019691600026_);">
		<text transform="matrix(1 0 0 1 1.938 42.0107)" class="st3 st4">A</text>
	</g>
	<g style="clip-path:url(#SVGID_00000169518206905321186660000008612293019691600026_);">
		<text transform="matrix(1 0 0 1 26.1685 29.8945)" class="st3 st5">liff</text>
	</g>
</g>
</svg>
